<svg width="126" height="126" xmlns="http://www.w3.org/2000/svg" xmlns:xlink="http://www.w3.org/1999/xlink" xml:space="preserve" overflow="hidden"><g transform="translate(-38 -34)"><g><g><g><g><path d="M72.0784 99.1562 72.893 99.1773C73.0299 99.1818 73.1674 99.1863 73.3056 99.1913 75.2451 99.2601 76.7618 100.888 76.693 102.827 76.6243 104.767 74.9962 106.284 73.0566 106.215L72.3445 106.193C72.227 106.19 72.1101 106.187 71.9937 106.185L71.3028 106.172C70.0491 106.156 68.8669 106.173 67.7567 106.223L67.1583 106.254 66.5743 106.29C66.4781 106.297 66.3826 106.304 66.2877 106.312L65.7252 106.358C65.4475 106.382 65.1753 106.409 64.9085 106.439L64.382 106.501C61.9589 106.805 60.0082 107.312 58.5414 108.006 56.246 109.092 55.3754 110.446 55.4633 112.6L55.4815 112.955C55.7913 117.976 58.255 120.079 64.0535 120.12 65.9445 120.133 67.478 121.638 67.541 123.513L67.543 123.634 67.5423 148.77 67.5399 148.845C67.5035 149.699 67.5446 150.402 67.6498 150.947 67.7196 151.307 67.8077 151.556 67.8934 151.706L67.9394 151.781C68.0147 151.817 68.1791 151.851 68.4629 151.851 69.606 151.851 69.994 151.598 70.4933 150.352 70.693 149.854 70.8642 149.257 71.0052 148.557L71.0681 148.227 71.1266 147.882C71.1454 147.765 71.1635 147.645 71.1809 147.523L71.2307 147.148C71.2386 147.084 71.2463 147.02 71.2539 146.955L71.297 146.559C71.3039 146.492 71.3105 146.423 71.3169 146.355L71.3533 145.935C71.3589 145.864 71.3645 145.792 71.3697 145.72L71.3992 145.278C71.4038 145.203 71.4081 145.128 71.4122 145.051L71.4348 144.586C71.4382 144.508 71.4414 144.428 71.4444 144.348L71.4599 143.86 71.4707 143.356 71.4767 142.837 71.478 142.302C71.4778 142.212 71.4774 142.12 71.4768 142.029L71.4707 141.47 71.4597 140.896 71.4438 140.306 71.4229 139.699 71.3969 139.077C71.3922 138.972 71.3872 138.866 71.3821 138.759L71.3486 138.112 71.3099 137.449C71.3031 137.337 71.296 137.225 71.2887 137.112 71.1638 135.175 72.6327 133.504 74.5695 133.379 76.5063 133.254 78.1776 134.723 78.3025 136.659L78.3488 137.416C78.356 137.54 78.363 137.664 78.3698 137.788L78.4072 138.52 78.4388 139.236 78.4644 139.937 78.4841 140.621C78.5145 141.863 78.5147 143.026 78.4837 144.115L78.4637 144.703 78.4376 145.275C78.3839 146.312 78.2988 147.277 78.1815 148.175L78.1144 148.658C77.8682 150.326 77.5043 151.751 77.0171 152.967 75.431 156.924 72.4314 158.879 68.4629 158.879 63.1029 158.879 60.3715 154.944 60.505 148.944L60.5148 148.639 60.5148 126.877 60.4717 126.871C53.1383 125.71 48.864 120.946 48.4536 113.16L48.4408 112.887C48.2348 107.836 50.7554 103.914 55.5364 101.653 59.4572 99.7983 64.945 99.0036 72.0784 99.1562ZM62.0076 36.8657C62.6845 38.3853 62.0011 40.1659 60.4815 40.8427 47.5629 46.596 43.7986 56.8051 49.0191 72.673 49.2489 73.3715 49.2152 74.1298 48.9246 74.8052L48.7977 75.0943 48.6586 75.4008 48.5071 75.7247 48.3433 76.0663 48.167 76.4255 47.8793 76.9976 47.5636 77.6098 47.2197 78.2623 46.9747 78.7199 46.5837 79.4403 46.1643 80.2018 45.5288 81.3383 45.5418 81.4968C46.2132 89.0369 51.7627 92.3347 63.6219 91.5887L64.32 91.5425 64.956 91.5053C65.1664 91.4943 65.3752 91.4848 65.5824 91.4762L66.1993 91.4551C75.4839 91.1906 81.4883 93.6028 84.1464 98.3253 86.4002 102.33 85.6769 107.507 83.233 110.619 81.5838 112.719 78.5511 114.352 74.9049 115.378L74.4259 115.509C74.2651 115.551 74.1032 115.592 73.9403 115.632L73.4485 115.749C73.0362 115.843 72.6179 115.929 72.1944 116.009L71.6839 116.1C68.2652 116.685 64.5471 116.783 61.0359 116.301 59.3877 116.075 58.2347 114.556 58.4605 112.908 58.6863 111.26 60.2055 110.107 61.8537 110.333 63.3971 110.545 64.9971 110.611 66.5712 110.56L67.0426 110.541 67.512 110.514 67.9788 110.482C68.289 110.457 68.5972 110.429 68.9028 110.396L69.3591 110.343C69.5104 110.325 69.661 110.305 69.8108 110.285L70.2575 110.22 70.6987 110.149C70.7718 110.137 70.8446 110.124 70.9171 110.111L71.3491 110.032 71.7744 109.947 72.1924 109.857C72.7448 109.733 73.2766 109.595 73.7825 109.445L74.157 109.33C74.7727 109.134 75.3461 108.921 75.8666 108.691L76.1724 108.551C77.2203 108.056 78.0262 107.495 78.495 106.898 79.5156 105.599 79.8759 103.02 78.8965 101.28 78.2365 100.108 77.0049 99.1401 75.1217 98.4714L74.819 98.3685C74.1512 98.1501 73.4067 97.9679 72.5823 97.8248L72.196 97.7616C72.0654 97.7415 71.9328 97.7224 71.7984 97.7038L71.3893 97.6521C71.3201 97.6441 71.2504 97.6361 71.1804 97.628L70.7538 97.5854 70.3156 97.5477C70.2416 97.5422 70.1671 97.5367 70.0922 97.5316L69.6363 97.5035C69.5594 97.4995 69.4819 97.4955 69.404 97.492L68.9304 97.4729C68.6906 97.4649 68.4463 97.4594 68.1975 97.4563L67.6939 97.4533C67.3541 97.4533 67.0062 97.4578 66.6502 97.4669L66.11 97.4835 65.5574 97.5065C65.4643 97.5111 65.3707 97.5156 65.2765 97.5206L64.7054 97.5542 64.415 97.5738C48.744 98.6597 39.8698 92.9652 39.4619 80.7224 39.4434 80.1662 39.5793 79.6158 39.8545 79.1322L40.3024 78.3413 40.8582 77.3478 41.3664 76.4246 41.7163 75.7786 42.1407 74.9796 42.4275 74.4274 42.6036 74.0818 42.845 73.5974 42.9339 73.4164 42.774 72.8903C37.5202 55.2768 42.4977 42.4765 57.5567 35.5539L58.0306 35.3395C59.5503 34.6627 61.3308 35.346 62.0076 36.8657ZM101.029 45.865C103.843 45.865 106.086 47.0397 107.528 49.1477 108.596 50.7068 109.14 52.6015 109.375 54.8773L109.405 55.1841 109.431 55.4841 109.453 55.7815 109.472 56.0808 109.487 56.3865 109.499 56.7029 109.512 57.2074 109.52 57.761 109.522 58.1647 109.522 59.2477 109.514 59.6327 109.478 60.5096 109.406 62.0002 109.386 62.5301 109.378 62.8843 109.374 63.2256C109.373 63.3524 109.373 63.4758 109.375 63.5957L109.383 63.945C109.387 64.0579 109.392 64.1674 109.398 64.2733L109.419 64.5805C109.479 65.3222 109.597 65.8648 109.761 66.1993L109.814 66.298 109.849 66.3546 109.86 66.3666C109.892 66.3823 109.946 66.3976 110.037 66.4095 110.196 66.4301 110.406 66.4295 110.671 66.399L110.902 66.3704 111.122 66.339 111.332 66.3042 111.53 66.2659 111.72 66.2234C112.915 65.9336 113.483 65.3611 113.743 64.0099L113.781 63.7959 113.814 63.5691C113.819 63.5302 113.824 63.4908 113.828 63.4508L113.855 63.2043C113.859 63.1621 113.863 63.1192 113.866 63.0759L113.887 62.8086 113.904 62.5271 113.918 62.2309 113.933 61.758 113.939 61.4233 113.945 60.7052 113.946 59.31 113.952 58.5464 113.963 58.049 113.979 57.5844 114.002 57.1236 114.012 56.9659C114.159 54.617 114.575 52.7298 115.494 51.1388 116.8 48.8786 118.997 47.5841 121.822 47.5841 125.464 47.5841 128.005 49.6523 129.305 52.9176 130.091 54.8942 130.393 57.1136 130.416 59.6034L130.416 60.3166 130.407 61.0818 130.407 61.6617 130.413 61.9691 130.418 62.1178C130.461 63.1819 130.626 63.765 130.889 64.0597 131.248 64.4628 132.101 64.7704 133.802 64.7905L133.981 64.7915 150.929 64.7919 151.329 64.7948 151.713 64.7917C152.026 64.7865 152.321 64.7749 152.601 64.7566L152.928 64.7315C155.8 64.4771 156.78 63.4471 156.78 61.4748 156.78 60.3078 156.517 59.7651 155.986 59.4376 155.169 58.9351 153.577 58.7244 151.212 58.9832 151.14 58.9911 151.067 58.9964 150.994 58.9991L150.885 59.001 138.371 59.001C136.707 59.001 135.359 57.6524 135.359 55.9889 135.359 54.3631 136.647 53.0382 138.258 52.9788L138.371 52.9767 150.729 52.977 151 52.9501 151.433 52.9147C158.372 52.4111 162.713 55.2718 162.803 61.284L162.804 61.4748C162.804 67.6529 158.375 70.8614 151.106 70.8181L150.885 70.8158 133.981 70.8158C127.542 70.8158 124.674 67.6801 124.406 62.5334L124.398 62.3611C124.387 62.086 124.382 61.8432 124.381 61.5512L124.383 61.0662 124.393 59.9297C124.393 58.0048 124.185 56.3455 123.707 55.1451 123.255 54.0081 122.764 53.6084 121.822 53.6084 121.081 53.6084 120.614 53.9813 120.33 55.0622L120.28 55.2666 120.235 55.4871 120.192 55.7241C120.186 55.7649 120.179 55.8065 120.173 55.8489L120.137 56.1114 120.104 56.3916C120.099 56.4398 120.093 56.4887 120.088 56.5384L120.06 56.8458C120.056 56.8987 120.052 56.9522 120.048 57.0066L120.025 57.3423 120.003 57.7274 119.993 57.9854 119.984 58.253 119.976 58.6888 119.97 59.3733 119.969 60.7729 119.966 61.2806 119.96 61.7608 119.951 62.2153 119.937 62.6462C119.931 62.7861 119.925 62.9223 119.918 63.0552L119.894 63.4443C119.881 63.6342 119.865 63.8172 119.847 63.9946L119.808 64.342C119.666 65.4767 119.409 66.3887 118.956 67.3918 117.675 70.2294 115.113 71.9506 111.362 72.3836 108.291 72.7379 105.854 71.5823 104.525 69.1828 103.659 67.6197 103.358 65.8016 103.349 63.4563L103.35 63.0573 103.36 62.5159 103.379 61.9365 103.418 61.0709 103.483 59.7154 103.496 59.3048 103.499 59.0874 103.497 58.0279 103.489 57.3428 103.477 56.8939 103.459 56.4839 103.444 56.225 103.426 55.9723 103.406 55.7356 103.365 55.3304 103.326 55.0114C103.32 54.9598 103.313 54.9089 103.306 54.8587L103.261 54.5667C102.936 52.5845 102.301 51.8893 101.029 51.8893 99.0045 51.8893 98.2569 52.4457 98.017 54.208L98.0014 54.337 98.013 54.4779C99.1541 68.5658 95.6047 78.544 87.1453 83.9359L86.8848 84.0996 86.8004 84.1499C73.7654 91.6414 61.875 91.6414 51.7095 83.9392 50.3837 82.9345 50.1232 81.0452 51.1279 79.7193 52.1326 78.3933 54.0219 78.1329 55.3478 79.1376 63.3733 85.2185 72.5588 85.2792 83.4674 79.1155L83.7504 78.9547 83.9084 78.855C90.219 74.8269 92.9912 67.0143 92.0062 54.9403L91.9751 54.5693C91.9595 54.3915 91.9595 54.2127 91.9761 54.035 92.4465 48.8515 95.7759 45.865 101.029 45.865ZM68.6194 42.0283C79.4326 42.0283 88.1984 50.7941 88.1984 61.6073 88.1984 72.4204 79.4326 81.1862 68.6194 81.1862 57.8063 81.1862 49.0405 72.4204 49.0405 61.6073 49.0405 50.7941 57.8063 42.0283 68.6194 42.0283ZM68.6194 48.0526C61.1334 48.0526 55.0648 54.1213 55.0648 61.6073 55.0648 69.0933 61.1334 75.1619 68.6194 75.1619 76.1055 75.1619 82.1741 69.0933 82.1741 61.6073 82.1741 54.1213 76.1055 48.0526 68.6194 48.0526ZM68.6194 51.5668C74.1646 51.5668 78.6599 56.0621 78.6599 61.6073 78.6599 67.1525 74.1646 71.6478 68.6194 71.6478 63.0742 71.6478 58.5789 67.1525 58.5789 61.6073 58.5789 56.0621 63.0742 51.5668 68.6194 51.5668ZM68.6194 57.5911C66.4013 57.5911 64.6032 59.3892 64.6032 61.6073 64.6032 63.8254 66.4013 65.6235 68.6194 65.6235 70.8375 65.6235 72.6356 63.8254 72.6356 61.6073 72.6356 59.3892 70.8375 57.5911 68.6194 57.5911Z" fill="#DCD3BD" fill-rule="nonzero" fill-opacity="1"/></g></g></g></g></g></svg>